<?xml version="1.0" standalone="no"?>
<!DOCTYPE svg PUBLIC "-//W3C//DTD SVG 20010904//EN"
 "http://www.w3.org/TR/2001/REC-SVG-20010904/DTD/svg10.dtd">
<svg version="1.0" xmlns="http://www.w3.org/2000/svg"
 width="387.000000pt" height="387.000000pt" viewBox="0 0 387.000000 387.000000"
 preserveAspectRatio="xMidYMid meet">
<metadata>
Created by potrace 1.14, written by Peter Selinger 2001-2017
</metadata>
<g transform="translate(0.000000,387.000000) scale(0.100000,-0.100000)"
fill="#000000" stroke="none">
<path d="M3190 2690 c-10 -10 -16 -30 -14 -57 l1 -40 -68 -22 c-212 -68 -327
-255 -285 -461 33 -158 145 -240 427 -311 213 -53 259 -77 259 -136 0 -66 -72
-99 -196 -89 -108 9 -180 36 -320 120 l-127 76 -206 0 -206 0 -62 -59 c-34
-32 -88 -72 -120 -87 -53 -27 -67 -29 -168 -29 -102 0 -114 2 -168 30 -202
101 -262 355 -128 532 132 172 375 189 537 37 35 -33 79 -106 89 -146 8 -31 0
-30 155 -32 58 -1 116 3 128 8 21 9 23 15 18 50 -10 61 -61 180 -105 245 -22
32 -68 83 -101 114 -196 177 -474 215 -715 97 -158 -77 -284 -227 -335 -397
-7 -24 -15 -43 -18 -43 -2 0 -77 73 -166 163 -282 283 -399 348 -624 348 -384
-1 -695 -332 -668 -712 12 -175 74 -309 200 -434 123 -121 254 -180 432 -192
136 -9 315 40 410 112 42 32 60 31 107 -5 38 -28 61 -30 70 -6 3 6 1 52 -3
101 -5 50 -11 133 -15 185 -4 52 -11 100 -17 107 -15 18 -409 18 -426 1 -20
-20 -14 -34 33 -81 25 -25 45 -50 45 -55 0 -14 -69 -42 -129 -51 -154 -24
-315 71 -379 224 -71 171 13 384 183 464 122 57 248 47 360 -30 22 -15 182
-172 355 -350 406 -417 453 -464 503 -498 264 -181 599 -157 841 59 45 40 88
70 100 70 11 0 71 -29 131 -65 120 -71 220 -115 305 -136 30 -7 57 -14 59 -16
3 -2 6 -25 7 -52 0 -27 4 -53 8 -60 10 -16 272 -15 282 1 5 7 9 31 10 53 1 22
2 43 3 47 1 3 24 11 53 17 126 28 251 118 296 215 48 102 53 246 11 333 -41
85 -138 156 -277 204 -28 10 -111 32 -182 49 -71 18 -144 42 -162 54 -43 29
-57 68 -37 104 41 75 214 64 394 -25 33 -16 70 -27 82 -25 26 4 153 179 153
209 0 10 -6 28 -14 38 -20 29 -151 92 -232 113 -88 22 -91 24 -88 65 5 65 -9
72 -147 73 -101 1 -125 -2 -139 -16z"/>
</g>
</svg>
